<svg width="235" height="38" viewBox="0 0 235 38" fill="none" xmlns="http://www.w3.org/2000/svg">
<path d="M12.288 30.416C10.7733 30.416 9.34933 30.1173 8.016 29.52C6.68267 28.912 5.50933 28.0747 4.496 27.008C3.49333 25.9413 2.704 24.7093 2.128 23.312C1.56267 21.904 1.28 20.4 1.28 18.8C1.28 17.1893 1.56267 15.6853 2.128 14.288C2.704 12.88 3.49333 11.648 4.496 10.592C5.50933 9.52533 6.68267 8.69333 8.016 8.096C9.34933 7.488 10.7733 7.184 12.288 7.184C14.1013 7.184 15.7707 7.60533 17.296 8.448C18.8213 9.28 20.0853 10.3947 21.088 11.792L17.152 13.92C16.5547 13.216 15.8347 12.656 14.992 12.24C14.1493 11.8133 13.248 11.6 12.288 11.6C11.3813 11.6 10.528 11.7867 9.728 12.16C8.928 12.5333 8.224 13.0507 7.616 13.712C7.01867 14.3733 6.54933 15.136 6.208 16C5.86667 16.864 5.696 17.7973 5.696 18.8C5.696 19.792 5.86667 20.7253 6.208 21.6C6.54933 22.464 7.01867 23.2267 7.616 23.888C8.224 24.5387 8.928 25.056 9.728 25.44C10.528 25.8133 11.3813 26 12.288 26C13.2587 26 14.16 25.7867 14.992 25.36C15.8347 24.9333 16.5547 24.368 17.152 23.664L21.088 25.808C20.0853 27.1947 18.8213 28.3093 17.296 29.152C15.7707 29.9947 14.1013 30.416 12.288 30.416ZM30.2413 30.416C28.7693 30.416 27.4253 30.0373 26.2093 29.28C25.0039 28.5227 24.0386 27.5093 23.3133 26.24C22.5986 24.96 22.2413 23.5467 22.2413 22C22.2413 20.8267 22.4493 19.7333 22.8653 18.72C23.2813 17.696 23.8519 16.8 24.5773 16.032C25.3133 15.2533 26.1666 14.6453 27.1373 14.208C28.1079 13.7707 29.1426 13.552 30.2413 13.552C31.7133 13.552 33.0519 13.9307 34.2573 14.688C35.4733 15.4453 36.4386 16.464 37.1533 17.744C37.8786 19.024 38.2413 20.4427 38.2413 22C38.2413 23.1627 38.0333 24.2507 37.6173 25.264C37.2013 26.2773 36.6253 27.1733 35.8893 27.952C35.1639 28.72 34.3159 29.3227 33.3453 29.76C32.3853 30.1973 31.3506 30.416 30.2413 30.416ZM30.2413 26C30.9239 26 31.5373 25.8187 32.0813 25.456C32.6253 25.0827 33.0519 24.592 33.3613 23.984C33.6706 23.376 33.8253 22.7147 33.8253 22C33.8253 21.264 33.6599 20.592 33.3293 19.984C33.0093 19.3653 32.5773 18.8747 32.0333 18.512C31.4893 18.1493 30.8919 17.968 30.2413 17.968C29.5693 17.968 28.9613 18.1547 28.4173 18.528C27.8733 18.9013 27.4413 19.392 27.1213 20C26.8119 20.608 26.6573 21.2747 26.6573 22C26.6573 22.7573 26.8173 23.44 27.1373 24.048C27.4679 24.6453 27.9053 25.12 28.4493 25.472C28.9933 25.824 29.5906 26 30.2413 26ZM40.686 30L40.67 14H45.086L45.102 15.184C45.6353 14.672 46.2593 14.272 46.974 13.984C47.6993 13.696 48.462 13.552 49.262 13.552C49.8487 13.552 50.4353 13.6373 51.022 13.808L49.278 18.272C48.894 18.112 48.5047 18.032 48.11 18.032C47.5553 18.032 47.0487 18.1653 46.59 18.432C46.1313 18.6987 45.7687 19.0613 45.502 19.52C45.2353 19.968 45.102 20.4747 45.102 21.04V30H40.686ZM67.6903 19.824V30H63.2743V21.04C63.2743 20.4747 63.1356 19.968 62.8583 19.52C62.5916 19.0613 62.2289 18.6987 61.7703 18.432C61.3223 18.1653 60.8209 18.032 60.2663 18.032C59.7116 18.032 59.2049 18.1653 58.7463 18.432C58.2876 18.6987 57.9249 19.0613 57.6583 19.52C57.3916 19.968 57.2583 20.4747 57.2583 21.04V30H52.8423L52.8263 14H57.2423L57.2583 15.184C57.7916 14.672 58.4156 14.272 59.1302 13.984C59.8556 13.696 60.6183 13.552 61.4183 13.552C62.5809 13.552 63.6316 13.8347 64.5703 14.4C65.5196 14.9653 66.2769 15.7227 66.8423 16.672C67.4076 17.6107 67.6903 18.6613 67.6903 19.824ZM70.8888 14H75.3048V30H70.8888V14ZM73.1288 12.16C72.4888 12.16 71.9501 11.9467 71.5128 11.52C71.0754 11.0933 70.8568 10.5653 70.8568 9.936C70.8568 9.30667 71.0754 8.77867 71.5128 8.352C71.9501 7.92533 72.4834 7.712 73.1128 7.712C73.7421 7.712 74.2701 7.92533 74.6968 8.352C75.1341 8.77867 75.3528 9.30667 75.3528 9.936C75.3528 10.5653 75.1394 11.0933 74.7128 11.52C74.2968 11.9467 73.7688 12.16 73.1288 12.16ZM93.8465 19.824V30H89.4305V21.04C89.4305 20.4747 89.2918 19.968 89.0145 19.52C88.7478 19.0613 88.3852 18.6987 87.9265 18.432C87.4785 18.1653 86.9772 18.032 86.4225 18.032C85.8678 18.032 85.3612 18.1653 84.9025 18.432C84.4438 18.6987 84.0812 19.0613 83.8145 19.52C83.5478 19.968 83.4145 20.4747 83.4145 21.04V30H78.9985L78.9825 14H83.3985L83.4145 15.184C83.9478 14.672 84.5718 14.272 85.2865 13.984C86.0118 13.696 86.7745 13.552 87.5745 13.552C88.7372 13.552 89.7878 13.8347 90.7265 14.4C91.6758 14.9653 92.4332 15.7227 92.9985 16.672C93.5638 17.6107 93.8465 18.6613 93.8465 19.824ZM108.349 14H112.765V30.224C112.765 31.408 112.525 32.4747 112.045 33.424C111.565 34.384 110.909 35.2053 110.077 35.888C109.255 36.5707 108.306 37.0933 107.229 37.456C106.162 37.8187 105.031 38 103.837 38C102.706 38 101.623 37.776 100.589 37.328C99.5538 36.8907 98.6365 36.2827 97.8365 35.504C97.0365 34.7253 96.4125 33.8293 95.9645 32.816L99.9965 30.976C100.221 31.5093 100.525 31.968 100.909 32.352C101.303 32.736 101.751 33.0293 102.253 33.232C102.765 33.4453 103.293 33.552 103.837 33.552C104.423 33.552 104.983 33.4827 105.517 33.344C106.061 33.2053 106.546 32.9973 106.973 32.72C107.399 32.4427 107.735 32.096 107.981 31.68C108.226 31.264 108.349 30.7787 108.349 30.224V28.368C107.858 28.976 107.261 29.472 106.557 29.856C105.863 30.2293 105.058 30.416 104.141 30.416C102.989 30.416 101.906 30.1973 100.893 29.76C99.8898 29.3227 99.0045 28.72 98.2365 27.952C97.4685 27.1733 96.8658 26.2773 96.4285 25.264C95.9912 24.2507 95.7725 23.1627 95.7725 22C95.7725 20.8373 95.9912 19.7493 96.4285 18.736C96.8658 17.7227 97.4685 16.832 98.2365 16.064C99.0045 15.2853 99.8898 14.6773 100.893 14.24C101.906 13.8027 102.989 13.584 104.141 13.584C105.058 13.584 105.863 13.776 106.557 14.16C107.261 14.5333 107.858 15.024 108.349 15.632V14ZM104.205 26.176C104.93 26.176 105.586 25.9893 106.173 25.616C106.759 25.232 107.218 24.7253 107.549 24.096C107.89 23.4667 108.061 22.768 108.061 22C108.061 21.232 107.89 20.5333 107.549 19.904C107.218 19.264 106.759 18.7573 106.173 18.384C105.586 18.0107 104.93 17.824 104.205 17.824C103.49 17.824 102.834 18.0107 102.237 18.384C101.65 18.7573 101.181 19.264 100.829 19.904C100.477 20.5333 100.301 21.232 100.301 22C100.301 22.768 100.477 23.472 100.829 24.112C101.181 24.7413 101.65 25.2427 102.237 25.616C102.834 25.9893 103.49 26.176 104.205 26.176Z" fill="#1F1F1F"/>
<path d="M142.216 32.312C141.08 32.312 140.012 32.088 139.012 31.64C138.012 31.184 137.132 30.556 136.372 29.756C135.62 28.956 135.028 28.032 134.596 26.984C134.172 25.928 133.96 24.8 133.96 23.6C133.96 22.392 134.172 21.264 134.596 20.216C135.028 19.16 135.62 18.236 136.372 17.444C137.132 16.644 138.012 16.02 139.012 15.572C140.012 15.116 141.08 14.888 142.216 14.888C143.576 14.888 144.828 15.204 145.972 15.836C147.116 16.46 148.064 17.296 148.816 18.344L145.864 19.94C145.416 19.412 144.876 18.992 144.244 18.68C143.612 18.36 142.936 18.2 142.216 18.2C141.536 18.2 140.896 18.34 140.296 18.62C139.696 18.9 139.168 19.288 138.712 19.784C138.264 20.28 137.912 20.852 137.656 21.5C137.4 22.148 137.272 22.848 137.272 23.6C137.272 24.344 137.4 25.044 137.656 25.7C137.912 26.348 138.264 26.92 138.712 27.416C139.168 27.904 139.696 28.292 140.296 28.58C140.896 28.86 141.536 29 142.216 29C142.944 29 143.62 28.84 144.244 28.52C144.876 28.2 145.416 27.776 145.864 27.248L148.816 28.856C148.064 29.896 147.116 30.732 145.972 31.364C144.828 31.996 143.576 32.312 142.216 32.312ZM162.158 24.368V32H158.846V25.28C158.846 24.856 158.742 24.476 158.534 24.14C158.334 23.796 158.062 23.524 157.718 23.324C157.382 23.124 157.006 23.024 156.59 23.024C156.174 23.024 155.794 23.124 155.45 23.324C155.106 23.524 154.834 23.796 154.634 24.14C154.434 24.476 154.334 24.856 154.334 25.28V32H151.022L151.01 14H154.322L154.334 20.888C154.734 20.504 155.202 20.204 155.738 19.988C156.282 19.772 156.854 19.664 157.454 19.664C158.326 19.664 159.114 19.876 159.818 20.3C160.53 20.724 161.098 21.292 161.522 22.004C161.946 22.708 162.158 23.496 162.158 24.368ZM173.131 20H176.443V32H173.119L172.963 30.752C172.651 31.216 172.251 31.592 171.763 31.88C171.275 32.168 170.703 32.312 170.047 32.312C169.151 32.312 168.315 32.144 167.539 31.808C166.763 31.472 166.079 31.008 165.487 30.416C164.895 29.824 164.431 29.14 164.095 28.364C163.767 27.58 163.603 26.74 163.603 25.844C163.603 24.988 163.759 24.188 164.071 23.444C164.383 22.7 164.823 22.044 165.391 21.476C165.959 20.908 166.611 20.464 167.347 20.144C168.091 19.824 168.891 19.664 169.747 19.664C170.483 19.664 171.143 19.82 171.727 20.132C172.319 20.444 172.835 20.84 173.275 21.32L173.131 20ZM169.963 29.132C170.507 29.132 170.999 28.992 171.439 28.712C171.879 28.432 172.227 28.056 172.483 27.584C172.739 27.104 172.867 26.576 172.867 26C172.867 25.416 172.739 24.888 172.483 24.416C172.227 23.944 171.879 23.568 171.439 23.288C170.999 23.008 170.507 22.868 169.963 22.868C169.411 22.868 168.911 23.008 168.463 23.288C168.015 23.568 167.659 23.948 167.395 24.428C167.131 24.9 166.999 25.424 166.999 26C166.999 26.576 167.131 27.104 167.395 27.584C167.667 28.056 168.027 28.432 168.475 28.712C168.923 28.992 169.419 29.132 169.963 29.132ZM178.866 32L178.854 20H182.166L182.178 20.888C182.578 20.504 183.046 20.204 183.582 19.988C184.126 19.772 184.698 19.664 185.298 19.664C185.738 19.664 186.178 19.728 186.618 19.856L185.31 23.204C185.022 23.084 184.73 23.024 184.434 23.024C184.018 23.024 183.638 23.124 183.294 23.324C182.95 23.524 182.678 23.796 182.478 24.14C182.278 24.476 182.178 24.856 182.178 25.28V32H178.866ZM194.827 23.312H192.667V32H189.355V23.312H187.699V20H189.355V16.232H192.667V20H194.827V23.312ZM196.995 32V15.2H207.627V18.512H200.307V21.344H206.019V24.656H200.307V28.688H207.627V32H196.995ZM217.789 20H221.317L214.741 38H211.237L213.397 32L209.077 20H212.701L215.053 27.476L217.789 20ZM227.658 32.312C226.554 32.312 225.546 32.028 224.634 31.46C223.73 30.892 223.006 30.128 222.462 29.168C221.926 28.208 221.658 27.148 221.658 25.988C221.658 25.116 221.814 24.3 222.126 23.54C222.438 22.772 222.866 22.1 223.41 21.524C223.962 20.94 224.602 20.484 225.33 20.156C226.058 19.828 226.834 19.664 227.658 19.664C228.61 19.664 229.478 19.868 230.262 20.276C231.054 20.684 231.722 21.24 232.266 21.944C232.818 22.648 233.21 23.444 233.442 24.332C233.682 25.22 233.722 26.144 233.562 27.104H225.234C225.338 27.456 225.498 27.776 225.714 28.064C225.938 28.344 226.21 28.568 226.53 28.736C226.858 28.904 227.234 28.992 227.658 29C228.074 29.008 228.458 28.912 228.81 28.712C229.162 28.512 229.462 28.244 229.71 27.908L233.094 28.688C232.606 29.752 231.878 30.624 230.91 31.304C229.942 31.976 228.858 32.312 227.658 32.312ZM225.114 24.656H230.214C230.11 24.256 229.934 23.896 229.686 23.576C229.438 23.256 229.138 23.004 228.786 22.82C228.442 22.636 228.066 22.544 227.658 22.544C227.258 22.544 226.882 22.636 226.53 22.82C226.186 23.004 225.89 23.256 225.642 23.576C225.402 23.888 225.226 24.248 225.114 24.656Z" fill="#A6A6A6"/>
</svg>
