<svg width="80" height="80" viewBox="0 0 80 80" fill="none" xmlns="http://www.w3.org/2000/svg">
<g clip-path="url(#clip0_171_210)">
<rect width="80" height="80" rx="28" fill="white"/>
<mask id="path-2-outside-1_171_210" maskUnits="userSpaceOnUse" x="8.19238" y="8.25885" width="62" height="62" fill="black">
<rect fill="white" x="8.19238" y="8.25885" width="62" height="62"/>
<path fill-rule="evenodd" clip-rule="evenodd" d="M52.4426 26.7497C39.5734 13.8805 23.3743 9.21426 16.2611 16.3275C9.1478 23.4408 13.814 39.6398 26.6833 52.5091C39.5526 65.3784 55.7516 70.0446 62.8649 62.9313C69.9781 55.8181 65.3119 39.619 52.4426 26.7497ZM49.5597 29.287C38.252 17.9792 24.5971 13.3006 19.0607 18.837C13.5244 24.3734 18.203 38.0282 29.5107 49.336C40.8185 60.6437 54.4733 65.3223 60.0097 59.786C65.5461 54.2496 60.8675 40.5947 49.5597 29.287Z"/>
</mask>
<path fill-rule="evenodd" clip-rule="evenodd" d="M52.4426 26.7497C39.5734 13.8805 23.3743 9.21426 16.2611 16.3275C9.1478 23.4408 13.814 39.6398 26.6833 52.5091C39.5526 65.3784 55.7516 70.0446 62.8649 62.9313C69.9781 55.8181 65.3119 39.619 52.4426 26.7497ZM49.5597 29.287C38.252 17.9792 24.5971 13.3006 19.0607 18.837C13.5244 24.3734 18.203 38.0282 29.5107 49.336C40.8185 60.6437 54.4733 65.3223 60.0097 59.786C65.5461 54.2496 60.8675 40.5947 49.5597 29.287Z" fill="white"/>
<path d="M16.2611 16.3275L19.0895 19.1559L19.0895 19.1559L16.2611 16.3275ZM52.4426 26.7497L55.2711 23.9213L55.2711 23.9213L52.4426 26.7497ZM26.6833 52.5091L29.5117 49.6807L29.5117 49.6807L26.6833 52.5091ZM62.8649 62.9313L60.0364 60.1029L62.8649 62.9313ZM49.5597 29.287L52.3882 26.4586L52.3882 26.4586L49.5597 29.287ZM29.5107 49.336L32.3392 46.5076L32.3392 46.5076L29.5107 49.336ZM60.0097 59.786L57.1813 56.9575L57.1813 56.9575L60.0097 59.786ZM19.0895 19.1559C21.1451 17.1003 25.1509 16.1792 31.0861 17.8889C36.8679 19.5544 43.5654 23.5294 49.6142 29.5782L55.2711 23.9213C48.4506 17.1008 40.6139 12.3081 33.3005 10.2015C26.1407 8.13904 18.4903 8.44146 13.4326 13.4991L19.0895 19.1559ZM29.5117 49.6807C23.4629 43.6319 19.4879 36.9344 17.8224 31.1526C16.1128 25.2173 17.0339 21.2116 19.0895 19.1559L13.4326 13.4991C8.375 18.5567 8.07258 26.2071 10.135 33.367C12.2416 40.6803 17.0344 48.517 23.8549 55.3375L29.5117 49.6807ZM60.0364 60.1029C57.9808 62.1585 53.9751 63.0796 48.0398 61.37C42.258 59.7045 35.5605 55.7295 29.5117 49.6807L23.8549 55.3375C30.6754 62.158 38.512 66.9507 45.8254 69.0574C52.9853 71.1198 60.6357 70.8174 65.6933 65.7598L60.0364 60.1029ZM49.6142 29.5782C55.663 35.627 59.638 42.3244 61.3035 48.1063C63.0132 54.0415 62.0921 58.0473 60.0364 60.1029L65.6933 65.7598C70.7509 60.7021 71.0533 53.0517 68.9909 45.8919C66.8843 38.5785 62.0916 30.7418 55.2711 23.9213L49.6142 29.5782ZM21.8892 21.6654C22.9776 20.577 25.7444 19.7803 30.8494 21.5295C35.6766 23.1834 41.4132 26.7973 46.7313 32.1154L52.3882 26.4586C46.3985 20.4689 39.6538 16.0896 33.4425 13.9614C27.5091 11.9284 20.6803 11.5606 16.2323 16.0086L21.8892 21.6654ZM32.3392 46.5076C27.021 41.1894 23.4072 35.4528 21.7532 30.6257C20.0041 25.5206 20.8008 22.7538 21.8892 21.6654L16.2323 16.0086C11.7843 20.4565 12.1522 27.2853 14.1851 33.2188C16.3133 39.4301 20.6927 46.1748 26.6823 52.1644L32.3392 46.5076ZM57.1813 56.9575C56.0929 58.0459 53.3261 58.8426 48.221 57.0935C43.3939 55.4395 37.6573 51.8257 32.3392 46.5076L26.6823 52.1644C32.6719 58.154 39.4166 62.5334 45.6279 64.6616C51.5614 66.6946 58.3902 67.0624 62.8381 62.6144L57.1813 56.9575ZM46.7313 32.1154C52.0494 37.4335 55.6633 43.1701 57.3172 47.9973C59.0664 53.1023 58.2697 55.8691 57.1813 56.9575L62.8381 62.6144C67.2861 58.1664 66.9183 51.3376 64.8853 45.4042C62.7571 39.1929 58.3778 32.4482 52.3882 26.4586L46.7313 32.1154Z" fill="#2B308B" mask="url(#path-2-outside-1_171_210)"/>
<ellipse cx="39.6094" cy="39.6757" rx="38.7307" ry="24.4503" transform="rotate(135 39.6094 39.6757)" fill="white"/>
<mask id="path-5-outside-2_171_210" maskUnits="userSpaceOnUse" x="8.19238" y="9" width="62" height="62" fill="black">
<rect fill="white" x="8.19238" y="9" width="62" height="62"/>
<path fill-rule="evenodd" clip-rule="evenodd" d="M26.6833 26.7497C13.814 39.619 9.1478 55.8181 16.261 62.9313C23.3743 70.0446 39.5733 65.3784 52.4426 52.5091C65.3119 39.6398 69.9781 23.4408 62.8649 16.3275C55.7516 9.21426 39.5526 13.8805 26.6833 26.7497ZM29.2205 29.6327C17.9128 40.9404 13.2342 54.5953 18.7705 60.1316C24.3069 65.668 37.9618 60.9894 49.2695 49.6817C60.5773 38.3739 65.2559 24.7191 59.7195 19.1827C54.1831 13.6463 40.5283 18.3249 29.2205 29.6327Z"/>
</mask>
<path fill-rule="evenodd" clip-rule="evenodd" d="M26.6833 26.7497C13.814 39.619 9.1478 55.8181 16.261 62.9313C23.3743 70.0446 39.5733 65.3784 52.4426 52.5091C65.3119 39.6398 69.9781 23.4408 62.8649 16.3275C55.7516 9.21426 39.5526 13.8805 26.6833 26.7497ZM29.2205 29.6327C17.9128 40.9404 13.2342 54.5953 18.7705 60.1316C24.3069 65.668 37.9618 60.9894 49.2695 49.6817C60.5773 38.3739 65.2559 24.7191 59.7195 19.1827C54.1831 13.6463 40.5283 18.3249 29.2205 29.6327Z" fill="white"/>
<path d="M16.261 62.9313L19.0895 60.1029L19.0895 60.1029L16.261 62.9313ZM26.6833 26.7497L23.8549 23.9213L23.8549 23.9213L26.6833 26.7497ZM52.4426 52.5091L49.6142 49.6807L49.6142 49.6807L52.4426 52.5091ZM62.8649 16.3275L60.0364 19.1559L62.8649 16.3275ZM29.2205 29.6327L26.3921 26.8042L26.3921 26.8042L29.2205 29.6327ZM49.2695 49.6817L46.4411 46.8532L46.4411 46.8532L49.2695 49.6817ZM59.7195 19.1827L56.8911 22.0111L56.8911 22.0111L59.7195 19.1827ZM19.0895 60.1029C17.0339 58.0473 16.1127 54.0415 17.8224 48.1062C19.4879 42.3244 23.4629 35.627 29.5117 29.5782L23.8549 23.9213C17.0344 30.7418 12.2416 38.5785 10.135 45.8919C8.07257 53.0517 8.37499 60.7021 13.4326 65.7598L19.0895 60.1029ZM49.6142 49.6807C43.5654 55.7295 36.8679 59.7045 31.0861 61.37C25.1509 63.0796 21.1451 62.1585 19.0895 60.1029L13.4326 65.7598C18.4902 70.8174 26.1406 71.1198 33.3005 69.0574C40.6139 66.9507 48.4506 62.158 55.2711 55.3375L49.6142 49.6807ZM60.0364 19.1559C62.0921 21.2116 63.0132 25.2173 61.3035 31.1526C59.638 36.9344 55.663 43.6319 49.6142 49.6807L55.2711 55.3375C62.0916 48.517 66.8843 40.6803 68.9909 33.367C71.0533 26.2071 70.7509 18.5567 65.6933 13.4991L60.0364 19.1559ZM29.5117 29.5782C35.5605 23.5294 42.258 19.5544 48.0398 17.8889C53.9751 16.1792 57.9808 17.1003 60.0364 19.1559L65.6933 13.4991C60.6357 8.44146 52.9853 8.13904 45.8254 10.2015C38.512 12.3081 30.6754 17.1008 23.8549 23.9213L29.5117 29.5782ZM21.599 57.3032C20.5106 56.2148 19.7139 53.448 21.463 48.343C23.117 43.5158 26.7308 37.7792 32.0489 32.4611L26.3921 26.8042C20.4025 32.7939 16.0231 39.5386 13.8949 45.7499C11.8619 51.6833 11.4941 58.5121 15.9421 62.9601L21.599 57.3032ZM46.4411 46.8532C41.123 52.1713 35.3864 55.7852 30.5592 57.4392C25.4542 59.1883 22.6874 58.3916 21.599 57.3032L15.9421 62.9601C20.3901 67.4081 27.2189 67.0402 33.1523 65.0072C39.3636 62.879 46.1083 58.4997 52.0979 52.5101L46.4411 46.8532ZM56.8911 22.0111C57.9795 23.0995 58.7762 25.8663 57.027 30.9714C55.3731 35.7985 51.7592 41.5351 46.4411 46.8532L52.0979 52.5101C58.0876 46.5204 62.4669 39.7757 64.5951 33.5644C66.6281 27.631 66.9959 20.8022 62.5479 16.3542L56.8911 22.0111ZM32.0489 32.4611C37.3671 27.143 43.1037 23.5291 47.9308 21.8752C53.0359 20.126 55.8027 20.9227 56.8911 22.0111L62.5479 16.3542C58.1 11.9063 51.2712 12.2741 45.3377 14.3071C39.1264 16.4353 32.3817 20.8146 26.3921 26.8042L32.0489 32.4611Z" fill="#2B308B" mask="url(#path-5-outside-2_171_210)"/>
<path d="M56.8982 22.3868C63.9693 29.4578 69.0397 37.9814 71.0484 46.1736L65.3842 45.003C63.7375 38.2867 59.5805 31.2987 53.7834 25.5016L56.8982 22.3868Z" fill="white"/>
<path d="M22.3203 56.9647C15.2492 49.8936 10.1787 41.37 8.17006 33.1778L13.8342 34.3485C15.481 41.0647 19.6379 48.0527 25.4351 53.8499L22.3203 56.9647Z" fill="white"/>
<mask id="mask0_171_210" style="mask-type:alpha" maskUnits="userSpaceOnUse" x="-7" y="9" width="49" height="57">
<rect x="-7" y="23.3097" width="24.1399" height="50.6775" transform="rotate(-33.6471 -7 23.3097)" fill="#D9D9D9"/>
</mask>
<g mask="url(#mask0_171_210)">
<mask id="path-10-outside-3_171_210" maskUnits="userSpaceOnUse" x="8.19238" y="8.25885" width="62" height="62" fill="black">
<rect fill="white" x="8.19238" y="8.25885" width="62" height="62"/>
<path fill-rule="evenodd" clip-rule="evenodd" d="M52.4426 26.7497C39.5734 13.8805 23.3743 9.21426 16.2611 16.3275C9.1478 23.4408 13.814 39.6398 26.6833 52.5091C39.5526 65.3784 55.7516 70.0446 62.8649 62.9313C69.9781 55.8181 65.3119 39.619 52.4426 26.7497ZM49.5597 29.287C38.252 17.9792 24.5971 13.3006 19.0607 18.837C13.5244 24.3734 18.203 38.0282 29.5107 49.336C40.8185 60.6437 54.4733 65.3223 60.0097 59.786C65.5461 54.2496 60.8675 40.5947 49.5597 29.287Z"/>
</mask>
<path fill-rule="evenodd" clip-rule="evenodd" d="M52.4426 26.7497C39.5734 13.8805 23.3743 9.21426 16.2611 16.3275C9.1478 23.4408 13.814 39.6398 26.6833 52.5091C39.5526 65.3784 55.7516 70.0446 62.8649 62.9313C69.9781 55.8181 65.3119 39.619 52.4426 26.7497ZM49.5597 29.287C38.252 17.9792 24.5971 13.3006 19.0607 18.837C13.5244 24.3734 18.203 38.0282 29.5107 49.336C40.8185 60.6437 54.4733 65.3223 60.0097 59.786C65.5461 54.2496 60.8675 40.5947 49.5597 29.287Z" fill="white"/>
<path d="M16.2611 16.3275L19.0895 19.1559L19.0895 19.1559L16.2611 16.3275ZM52.4426 26.7497L55.2711 23.9213L55.2711 23.9213L52.4426 26.7497ZM26.6833 52.5091L29.5117 49.6807L29.5117 49.6807L26.6833 52.5091ZM62.8649 62.9313L60.0364 60.1029L62.8649 62.9313ZM49.5597 29.287L52.3882 26.4586L52.3882 26.4586L49.5597 29.287ZM29.5107 49.336L32.3392 46.5076L32.3392 46.5076L29.5107 49.336ZM60.0097 59.786L57.1813 56.9575L57.1813 56.9575L60.0097 59.786ZM19.0895 19.1559C21.1451 17.1003 25.1509 16.1792 31.0861 17.8889C36.8679 19.5544 43.5654 23.5294 49.6142 29.5782L55.2711 23.9213C48.4506 17.1008 40.6139 12.3081 33.3005 10.2015C26.1407 8.13904 18.4903 8.44146 13.4326 13.4991L19.0895 19.1559ZM29.5117 49.6807C23.4629 43.6319 19.4879 36.9344 17.8224 31.1526C16.1128 25.2173 17.0339 21.2116 19.0895 19.1559L13.4326 13.4991C8.375 18.5567 8.07258 26.2071 10.135 33.367C12.2416 40.6803 17.0344 48.517 23.8549 55.3375L29.5117 49.6807ZM60.0364 60.1029C57.9808 62.1585 53.9751 63.0796 48.0398 61.37C42.258 59.7045 35.5605 55.7295 29.5117 49.6807L23.8549 55.3375C30.6754 62.158 38.512 66.9507 45.8254 69.0574C52.9853 71.1198 60.6357 70.8174 65.6933 65.7598L60.0364 60.1029ZM49.6142 29.5782C55.663 35.627 59.638 42.3244 61.3035 48.1063C63.0132 54.0415 62.0921 58.0473 60.0364 60.1029L65.6933 65.7598C70.7509 60.7021 71.0533 53.0517 68.9909 45.8919C66.8843 38.5785 62.0916 30.7418 55.2711 23.9213L49.6142 29.5782ZM21.8892 21.6654C22.9776 20.577 25.7444 19.7803 30.8494 21.5295C35.6766 23.1834 41.4132 26.7973 46.7313 32.1154L52.3882 26.4586C46.3985 20.4689 39.6538 16.0896 33.4425 13.9614C27.5091 11.9284 20.6803 11.5606 16.2323 16.0086L21.8892 21.6654ZM32.3392 46.5076C27.021 41.1894 23.4072 35.4528 21.7532 30.6257C20.0041 25.5206 20.8008 22.7538 21.8892 21.6654L16.2323 16.0086C11.7843 20.4565 12.1522 27.2853 14.1851 33.2188C16.3133 39.4301 20.6927 46.1748 26.6823 52.1644L32.3392 46.5076ZM57.1813 56.9575C56.0929 58.0459 53.3261 58.8426 48.221 57.0935C43.3939 55.4395 37.6573 51.8257 32.3392 46.5076L26.6823 52.1644C32.6719 58.154 39.4166 62.5334 45.6279 64.6616C51.5614 66.6946 58.3902 67.0624 62.8381 62.6144L57.1813 56.9575ZM46.7313 32.1154C52.0494 37.4335 55.6633 43.1701 57.3172 47.9973C59.0664 53.1023 58.2697 55.8691 57.1813 56.9575L62.8381 62.6144C67.2861 58.1664 66.9183 51.3376 64.8853 45.4042C62.7571 39.1929 58.3778 32.4482 52.3882 26.4586L46.7313 32.1154Z" fill="#2B308B" mask="url(#path-10-outside-3_171_210)"/>
</g>
<mask id="mask1_171_210" style="mask-type:alpha" maskUnits="userSpaceOnUse" x="39" y="16" width="42" height="53">
<rect x="39.2979" y="25.6646" width="18.0983" height="50.0595" transform="rotate(-30.224 39.2979 25.6646)" fill="#D9D9D9"/>
</mask>
<g mask="url(#mask1_171_210)">
<mask id="path-13-outside-4_171_210" maskUnits="userSpaceOnUse" x="8.19336" y="8.25878" width="62" height="62" fill="black">
<rect fill="white" x="8.19336" y="8.25878" width="62" height="62"/>
<path fill-rule="evenodd" clip-rule="evenodd" d="M52.4436 26.7497C39.5743 13.8804 23.3753 9.2142 16.262 16.3275C9.14878 23.4407 13.815 39.6398 26.6843 52.509C39.5535 65.3783 55.7526 70.0445 62.8658 62.9313C69.9791 55.818 65.3129 39.619 52.4436 26.7497ZM49.5607 29.2869C38.253 17.9792 24.5981 13.3006 19.0617 18.8369C13.5253 24.3733 18.204 38.0282 29.5117 49.3359C40.8194 60.6437 54.4743 65.3223 60.0107 59.7859C65.5471 54.2495 60.8684 40.5947 49.5607 29.2869Z"/>
</mask>
<path fill-rule="evenodd" clip-rule="evenodd" d="M52.4436 26.7497C39.5743 13.8804 23.3753 9.2142 16.262 16.3275C9.14878 23.4407 13.815 39.6398 26.6843 52.509C39.5535 65.3783 55.7526 70.0445 62.8658 62.9313C69.9791 55.818 65.3129 39.619 52.4436 26.7497ZM49.5607 29.2869C38.253 17.9792 24.5981 13.3006 19.0617 18.8369C13.5253 24.3733 18.204 38.0282 29.5117 49.3359C40.8194 60.6437 54.4743 65.3223 60.0107 59.7859C65.5471 54.2495 60.8684 40.5947 49.5607 29.2869Z" fill="white"/>
<path d="M16.262 16.3275L19.0905 19.1559L19.0905 19.1559L16.262 16.3275ZM52.4436 26.7497L55.272 23.9213L55.272 23.9213L52.4436 26.7497ZM26.6843 52.509L29.5127 49.6806L29.5127 49.6806L26.6843 52.509ZM62.8658 62.9313L60.0374 60.1028L62.8658 62.9313ZM49.5607 29.2869L52.3891 26.4585L52.3891 26.4585L49.5607 29.2869ZM29.5117 49.3359L32.3401 46.5075L32.3401 46.5075L29.5117 49.3359ZM60.0107 59.7859L57.1823 56.9575L57.1823 56.9575L60.0107 59.7859ZM19.0905 19.1559C21.1461 17.1003 25.1518 16.1792 31.0871 17.8888C36.8689 19.5543 43.5664 23.5293 49.6152 29.5781L55.272 23.9213C48.4515 17.1008 40.6149 12.308 33.3015 10.2014C26.1416 8.13898 18.4912 8.4414 13.4336 13.499L19.0905 19.1559ZM29.5127 49.6806C23.4639 43.6318 19.4889 36.9343 17.8234 31.1525C16.1137 25.2173 17.0348 21.2115 19.0905 19.1559L13.4336 13.499C8.37598 18.5567 8.07356 26.2071 10.136 33.3669C12.2426 40.6803 17.0353 48.517 23.8558 55.3375L29.5127 49.6806ZM60.0374 60.1028C57.9818 62.1585 53.976 63.0796 48.0408 61.3699C42.259 59.7044 35.5615 55.7294 29.5127 49.6806L23.8558 55.3375C30.6763 62.158 38.513 66.9507 45.8264 69.0573C52.9862 71.1197 60.6366 70.8173 65.6943 65.7597L60.0374 60.1028ZM49.6152 29.5781C55.664 35.6269 59.639 42.3244 61.3045 48.1062C63.0142 54.0415 62.093 58.0472 60.0374 60.1028L65.6943 65.7597C70.7519 60.7021 71.0543 53.0517 68.9919 45.8918C66.8853 38.5785 62.0925 30.7418 55.272 23.9213L49.6152 29.5781ZM21.8901 21.6654C22.9785 20.577 25.7454 19.7803 30.8504 21.5294C35.6776 23.1834 41.4142 26.7972 46.7323 32.1154L52.3891 26.4585C46.3995 20.4689 39.6548 16.0895 33.4435 13.9613C27.5101 11.9283 20.6813 11.5605 16.2333 16.0085L21.8901 21.6654ZM32.3401 46.5075C27.022 41.1894 23.4082 35.4528 21.7542 30.6256C20.005 25.5206 20.8017 22.7538 21.8901 21.6654L16.2333 16.0085C11.7853 20.4565 12.1531 27.2853 14.1861 33.2187C16.3143 39.43 20.6936 46.1747 26.6833 52.1643L32.3401 46.5075ZM57.1823 56.9575C56.0939 58.0459 53.327 58.8426 48.222 57.0934C43.3948 55.4395 37.6582 51.8256 32.3401 46.5075L26.6833 52.1643C32.6729 58.154 39.4176 62.5333 45.6289 64.6615C51.5623 66.6945 58.3911 67.0623 62.8391 62.6143L57.1823 56.9575ZM46.7323 32.1154C52.0504 37.4335 55.6642 43.1701 57.3182 47.9972C59.0674 53.1023 58.2707 55.8691 57.1823 56.9575L62.8391 62.6143C67.2871 58.1664 66.9193 51.3376 64.8863 45.4041C62.7581 39.1928 58.3788 32.4481 52.3891 26.4585L46.7323 32.1154Z" fill="#2B308B" mask="url(#path-13-outside-4_171_210)"/>
</g>
<circle cx="40" cy="8" r="2" fill="#2B308B"/>
<circle cx="40" cy="72" r="2" fill="#2B308B"/>
<circle cx="72" cy="40" r="2" transform="rotate(90 72 40)" fill="#2B308B"/>
<circle cx="8" cy="40" r="2" transform="rotate(90 8 40)" fill="#2B308B"/>
<circle cx="39.5" cy="40.5" r="13.5" fill="white" stroke="#2B308B" stroke-width="4"/>
<circle cx="40" cy="40" r="8" fill="#2B308B"/>
<circle cx="44.5" cy="36.5" r="3.5" fill="white"/>
</g>
<defs>
<clipPath id="clip0_171_210">
<rect width="80" height="80" fill="white"/>
</clipPath>
</defs>
</svg>
