<svg width="128" height="128" viewBox="0 0 128 128" fill="none" xmlns="http://www.w3.org/2000/svg">
<rect width="128" height="128" fill="white"/>
<g clip-path="url(#clip0_171_273)">
<rect x="24" y="11" width="80" height="80" rx="28" fill="white"/>
<mask id="path-2-outside-1_171_273" maskUnits="userSpaceOnUse" x="32.1924" y="19.2588" width="62" height="62" fill="black">
<rect fill="white" x="32.1924" y="19.2588" width="62" height="62"/>
<path fill-rule="evenodd" clip-rule="evenodd" d="M76.4426 37.7497C63.5734 24.8805 47.3743 20.2143 40.2611 27.3275C33.1478 34.4408 37.814 50.6398 50.6833 63.5091C63.5526 76.3784 79.7516 81.0446 86.8649 73.9313C93.9781 66.8181 89.3119 50.619 76.4426 37.7497ZM73.5597 40.287C62.252 28.9792 48.5971 24.3006 43.0607 29.837C37.5244 35.3734 42.203 49.0282 53.5107 60.336C64.8185 71.6437 78.4733 76.3223 84.0097 70.786C89.5461 65.2496 84.8675 51.5947 73.5597 40.287Z"/>
</mask>
<path fill-rule="evenodd" clip-rule="evenodd" d="M76.4426 37.7497C63.5734 24.8805 47.3743 20.2143 40.2611 27.3275C33.1478 34.4408 37.814 50.6398 50.6833 63.5091C63.5526 76.3784 79.7516 81.0446 86.8649 73.9313C93.9781 66.8181 89.3119 50.619 76.4426 37.7497ZM73.5597 40.287C62.252 28.9792 48.5971 24.3006 43.0607 29.837C37.5244 35.3734 42.203 49.0282 53.5107 60.336C64.8185 71.6437 78.4733 76.3223 84.0097 70.786C89.5461 65.2496 84.8675 51.5947 73.5597 40.287Z" fill="white"/>
<path d="M40.2611 27.3275L43.0895 30.1559L43.0895 30.1559L40.2611 27.3275ZM76.4426 37.7497L79.2711 34.9213L79.2711 34.9213L76.4426 37.7497ZM50.6833 63.5091L53.5117 60.6807L53.5117 60.6807L50.6833 63.5091ZM86.8649 73.9313L84.0364 71.1029L86.8649 73.9313ZM73.5597 40.287L76.3882 37.4586L76.3882 37.4586L73.5597 40.287ZM53.5107 60.336L56.3392 57.5076L56.3392 57.5076L53.5107 60.336ZM84.0097 70.786L81.1813 67.9575L81.1813 67.9575L84.0097 70.786ZM43.0895 30.1559C45.1451 28.1003 49.1509 27.1792 55.0861 28.8889C60.8679 30.5544 67.5654 34.5294 73.6142 40.5782L79.2711 34.9213C72.4506 28.1008 64.6139 23.3081 57.3005 21.2015C50.1407 19.139 42.4903 19.4415 37.4326 24.4991L43.0895 30.1559ZM53.5117 60.6807C47.4629 54.6319 43.4879 47.9344 41.8224 42.1526C40.1128 36.2173 41.0339 32.2116 43.0895 30.1559L37.4326 24.4991C32.375 29.5567 32.0726 37.2071 34.135 44.367C36.2416 51.6803 41.0344 59.517 47.8549 66.3375L53.5117 60.6807ZM84.0364 71.1029C81.9808 73.1585 77.9751 74.0796 72.0398 72.37C66.258 70.7045 59.5605 66.7295 53.5117 60.6807L47.8549 66.3375C54.6754 73.158 62.512 77.9507 69.8254 80.0574C76.9853 82.1198 84.6357 81.8174 89.6933 76.7598L84.0364 71.1029ZM73.6142 40.5782C79.663 46.627 83.638 53.3244 85.3035 59.1063C87.0132 65.0415 86.0921 69.0473 84.0364 71.1029L89.6933 76.7598C94.7509 71.7021 95.0533 64.0517 92.9909 56.8919C90.8843 49.5785 86.0916 41.7418 79.2711 34.9213L73.6142 40.5782ZM45.8892 32.6654C46.9776 31.577 49.7444 30.7803 54.8494 32.5295C59.6766 34.1834 65.4132 37.7973 70.7313 43.1154L76.3882 37.4586C70.3985 31.4689 63.6538 27.0896 57.4425 24.9614C51.5091 22.9284 44.6803 22.5606 40.2323 27.0086L45.8892 32.6654ZM56.3392 57.5076C51.021 52.1894 47.4072 46.4528 45.7532 41.6257C44.0041 36.5206 44.8008 33.7538 45.8892 32.6654L40.2323 27.0086C35.7843 31.4565 36.1522 38.2853 38.1851 44.2188C40.3133 50.4301 44.6927 57.1748 50.6823 63.1644L56.3392 57.5076ZM81.1813 67.9575C80.0929 69.0459 77.3261 69.8426 72.221 68.0935C67.3939 66.4395 61.6573 62.8257 56.3392 57.5076L50.6823 63.1644C56.6719 69.154 63.4166 73.5334 69.6279 75.6616C75.5614 77.6946 82.3902 78.0624 86.8381 73.6144L81.1813 67.9575ZM70.7313 43.1154C76.0494 48.4335 79.6633 54.1701 81.3172 58.9973C83.0664 64.1023 82.2697 66.8691 81.1813 67.9575L86.8381 73.6144C91.2861 69.1664 90.9183 62.3376 88.8853 56.4042C86.7571 50.1929 82.3778 43.4482 76.3882 37.4586L70.7313 43.1154Z" fill="#2B308B" mask="url(#path-2-outside-1_171_273)"/>
<ellipse cx="63.6094" cy="50.6757" rx="38.7307" ry="24.4503" transform="rotate(135 63.6094 50.6757)" fill="white"/>
<mask id="path-5-outside-2_171_273" maskUnits="userSpaceOnUse" x="32.1924" y="20" width="62" height="62" fill="black">
<rect fill="white" x="32.1924" y="20" width="62" height="62"/>
<path fill-rule="evenodd" clip-rule="evenodd" d="M50.6833 37.7497C37.814 50.619 33.1478 66.8181 40.261 73.9313C47.3743 81.0446 63.5733 76.3784 76.4426 63.5091C89.3119 50.6398 93.9781 34.4408 86.8649 27.3275C79.7516 20.2143 63.5526 24.8805 50.6833 37.7497ZM53.2205 40.6327C41.9128 51.9404 37.2342 65.5953 42.7705 71.1316C48.3069 76.668 61.9618 71.9894 73.2695 60.6817C84.5773 49.3739 89.2559 35.7191 83.7195 30.1827C78.1831 24.6463 64.5283 29.3249 53.2205 40.6327Z"/>
</mask>
<path fill-rule="evenodd" clip-rule="evenodd" d="M50.6833 37.7497C37.814 50.619 33.1478 66.8181 40.261 73.9313C47.3743 81.0446 63.5733 76.3784 76.4426 63.5091C89.3119 50.6398 93.9781 34.4408 86.8649 27.3275C79.7516 20.2143 63.5526 24.8805 50.6833 37.7497ZM53.2205 40.6327C41.9128 51.9404 37.2342 65.5953 42.7705 71.1316C48.3069 76.668 61.9618 71.9894 73.2695 60.6817C84.5773 49.3739 89.2559 35.7191 83.7195 30.1827C78.1831 24.6463 64.5283 29.3249 53.2205 40.6327Z" fill="white"/>
<path d="M40.261 73.9313L43.0895 71.1029L43.0895 71.1029L40.261 73.9313ZM50.6833 37.7497L47.8549 34.9213L47.8549 34.9213L50.6833 37.7497ZM76.4426 63.5091L73.6142 60.6807L73.6142 60.6807L76.4426 63.5091ZM86.8649 27.3275L84.0364 30.1559L86.8649 27.3275ZM53.2205 40.6327L50.3921 37.8042L50.3921 37.8042L53.2205 40.6327ZM73.2695 60.6817L70.4411 57.8532L70.4411 57.8532L73.2695 60.6817ZM83.7195 30.1827L80.8911 33.0111L80.8911 33.0111L83.7195 30.1827ZM43.0895 71.1029C41.0339 69.0473 40.1127 65.0415 41.8224 59.1062C43.4879 53.3244 47.4629 46.627 53.5117 40.5782L47.8549 34.9213C41.0344 41.7418 36.2416 49.5785 34.135 56.8919C32.0726 64.0517 32.375 71.7021 37.4326 76.7598L43.0895 71.1029ZM73.6142 60.6807C67.5654 66.7295 60.8679 70.7045 55.0861 72.37C49.1509 74.0796 45.1451 73.1585 43.0895 71.1029L37.4326 76.7598C42.4902 81.8174 50.1406 82.1198 57.3005 80.0574C64.6139 77.9507 72.4506 73.158 79.2711 66.3375L73.6142 60.6807ZM84.0364 30.1559C86.0921 32.2116 87.0132 36.2173 85.3035 42.1526C83.638 47.9344 79.663 54.6319 73.6142 60.6807L79.2711 66.3375C86.0916 59.517 90.8843 51.6803 92.9909 44.367C95.0533 37.2071 94.7509 29.5567 89.6933 24.4991L84.0364 30.1559ZM53.5117 40.5782C59.5605 34.5294 66.258 30.5544 72.0398 28.8889C77.9751 27.1792 81.9808 28.1003 84.0364 30.1559L89.6933 24.4991C84.6357 19.4415 76.9853 19.139 69.8254 21.2015C62.512 23.3081 54.6754 28.1008 47.8549 34.9213L53.5117 40.5782ZM45.599 68.3032C44.5106 67.2148 43.7139 64.448 45.463 59.343C47.117 54.5158 50.7308 48.7792 56.0489 43.4611L50.3921 37.8042C44.4025 43.7939 40.0231 50.5386 37.8949 56.7499C35.8619 62.6833 35.4941 69.5121 39.9421 73.9601L45.599 68.3032ZM70.4411 57.8532C65.123 63.1713 59.3864 66.7852 54.5592 68.4392C49.4542 70.1883 46.6874 69.3916 45.599 68.3032L39.9421 73.9601C44.3901 78.4081 51.2189 78.0402 57.1523 76.0072C63.3636 73.879 70.1083 69.4997 76.0979 63.5101L70.4411 57.8532ZM80.8911 33.0111C81.9795 34.0995 82.7762 36.8663 81.027 41.9714C79.3731 46.7985 75.7592 52.5351 70.4411 57.8532L76.0979 63.5101C82.0876 57.5204 86.4669 50.7757 88.5951 44.5644C90.6281 38.631 90.9959 31.8022 86.5479 27.3542L80.8911 33.0111ZM56.0489 43.4611C61.3671 38.143 67.1037 34.5291 71.9308 32.8752C77.0359 31.126 79.8027 31.9227 80.8911 33.0111L86.5479 27.3542C82.1 22.9063 75.2712 23.2741 69.3377 25.3071C63.1264 27.4353 56.3817 31.8146 50.3921 37.8042L56.0489 43.4611Z" fill="#2B308B" mask="url(#path-5-outside-2_171_273)"/>
<path d="M80.8982 33.3868C87.9693 40.4578 93.0397 48.9814 95.0484 57.1736L89.3842 56.003C87.7375 49.2867 83.5805 42.2987 77.7834 36.5016L80.8982 33.3868Z" fill="white"/>
<path d="M46.3203 67.9647C39.2492 60.8936 34.1787 52.37 32.1701 44.1778L37.8342 45.3485C39.481 52.0647 43.6379 59.0527 49.4351 64.8499L46.3203 67.9647Z" fill="white"/>
<mask id="mask0_171_273" style="mask-type:alpha" maskUnits="userSpaceOnUse" x="17" y="20" width="49" height="57">
<rect x="17" y="34.3097" width="24.1399" height="50.6775" transform="rotate(-33.6471 17 34.3097)" fill="#D9D9D9"/>
</mask>
<g mask="url(#mask0_171_273)">
<mask id="path-10-outside-3_171_273" maskUnits="userSpaceOnUse" x="32.1924" y="19.2588" width="62" height="62" fill="black">
<rect fill="white" x="32.1924" y="19.2588" width="62" height="62"/>
<path fill-rule="evenodd" clip-rule="evenodd" d="M76.4426 37.7497C63.5734 24.8805 47.3743 20.2143 40.2611 27.3275C33.1478 34.4408 37.814 50.6398 50.6833 63.5091C63.5526 76.3784 79.7516 81.0446 86.8649 73.9313C93.9781 66.8181 89.3119 50.619 76.4426 37.7497ZM73.5597 40.287C62.252 28.9792 48.5971 24.3006 43.0607 29.837C37.5244 35.3734 42.203 49.0282 53.5107 60.336C64.8185 71.6437 78.4733 76.3223 84.0097 70.786C89.5461 65.2496 84.8675 51.5947 73.5597 40.287Z"/>
</mask>
<path fill-rule="evenodd" clip-rule="evenodd" d="M76.4426 37.7497C63.5734 24.8805 47.3743 20.2143 40.2611 27.3275C33.1478 34.4408 37.814 50.6398 50.6833 63.5091C63.5526 76.3784 79.7516 81.0446 86.8649 73.9313C93.9781 66.8181 89.3119 50.619 76.4426 37.7497ZM73.5597 40.287C62.252 28.9792 48.5971 24.3006 43.0607 29.837C37.5244 35.3734 42.203 49.0282 53.5107 60.336C64.8185 71.6437 78.4733 76.3223 84.0097 70.786C89.5461 65.2496 84.8675 51.5947 73.5597 40.287Z" fill="white"/>
<path d="M40.2611 27.3275L43.0895 30.1559L43.0895 30.1559L40.2611 27.3275ZM76.4426 37.7497L79.2711 34.9213L79.2711 34.9213L76.4426 37.7497ZM50.6833 63.5091L53.5117 60.6807L53.5117 60.6807L50.6833 63.5091ZM86.8649 73.9313L84.0364 71.1029L86.8649 73.9313ZM73.5597 40.287L76.3882 37.4586L76.3882 37.4586L73.5597 40.287ZM53.5107 60.336L56.3392 57.5076L56.3392 57.5076L53.5107 60.336ZM84.0097 70.786L81.1813 67.9575L81.1813 67.9575L84.0097 70.786ZM43.0895 30.1559C45.1451 28.1003 49.1509 27.1792 55.0861 28.8889C60.8679 30.5544 67.5654 34.5294 73.6142 40.5782L79.2711 34.9213C72.4506 28.1008 64.6139 23.3081 57.3005 21.2015C50.1407 19.139 42.4903 19.4415 37.4326 24.4991L43.0895 30.1559ZM53.5117 60.6807C47.4629 54.6319 43.4879 47.9344 41.8224 42.1526C40.1128 36.2173 41.0339 32.2116 43.0895 30.1559L37.4326 24.4991C32.375 29.5567 32.0726 37.2071 34.135 44.367C36.2416 51.6803 41.0344 59.517 47.8549 66.3375L53.5117 60.6807ZM84.0364 71.1029C81.9808 73.1585 77.9751 74.0796 72.0398 72.37C66.258 70.7045 59.5605 66.7295 53.5117 60.6807L47.8549 66.3375C54.6754 73.158 62.512 77.9507 69.8254 80.0574C76.9853 82.1198 84.6357 81.8174 89.6933 76.7598L84.0364 71.1029ZM73.6142 40.5782C79.663 46.627 83.638 53.3244 85.3035 59.1063C87.0132 65.0415 86.0921 69.0473 84.0364 71.1029L89.6933 76.7598C94.7509 71.7021 95.0533 64.0517 92.9909 56.8919C90.8843 49.5785 86.0916 41.7418 79.2711 34.9213L73.6142 40.5782ZM45.8892 32.6654C46.9776 31.577 49.7444 30.7803 54.8494 32.5295C59.6766 34.1834 65.4132 37.7973 70.7313 43.1154L76.3882 37.4586C70.3985 31.4689 63.6538 27.0896 57.4425 24.9614C51.5091 22.9284 44.6803 22.5606 40.2323 27.0086L45.8892 32.6654ZM56.3392 57.5076C51.021 52.1894 47.4072 46.4528 45.7532 41.6257C44.0041 36.5206 44.8008 33.7538 45.8892 32.6654L40.2323 27.0086C35.7843 31.4565 36.1522 38.2853 38.1851 44.2188C40.3133 50.4301 44.6927 57.1748 50.6823 63.1644L56.3392 57.5076ZM81.1813 67.9575C80.0929 69.0459 77.3261 69.8426 72.221 68.0935C67.3939 66.4395 61.6573 62.8257 56.3392 57.5076L50.6823 63.1644C56.6719 69.154 63.4166 73.5334 69.6279 75.6616C75.5614 77.6946 82.3902 78.0624 86.8381 73.6144L81.1813 67.9575ZM70.7313 43.1154C76.0494 48.4335 79.6633 54.1701 81.3172 58.9973C83.0664 64.1023 82.2697 66.8691 81.1813 67.9575L86.8381 73.6144C91.2861 69.1664 90.9183 62.3376 88.8853 56.4042C86.7571 50.1929 82.3778 43.4482 76.3882 37.4586L70.7313 43.1154Z" fill="#2B308B" mask="url(#path-10-outside-3_171_273)"/>
</g>
<mask id="mask1_171_273" style="mask-type:alpha" maskUnits="userSpaceOnUse" x="63" y="27" width="42" height="53">
<rect x="63.2979" y="36.6646" width="18.0983" height="50.0595" transform="rotate(-30.224 63.2979 36.6646)" fill="#D9D9D9"/>
</mask>
<g mask="url(#mask1_171_273)">
<mask id="path-13-outside-4_171_273" maskUnits="userSpaceOnUse" x="32.1934" y="19.2588" width="62" height="62" fill="black">
<rect fill="white" x="32.1934" y="19.2588" width="62" height="62"/>
<path fill-rule="evenodd" clip-rule="evenodd" d="M76.4436 37.7497C63.5743 24.8804 47.3753 20.2142 40.262 27.3275C33.1488 34.4407 37.815 50.6398 50.6843 63.509C63.5535 76.3783 79.7526 81.0445 86.8658 73.9313C93.9791 66.818 89.3129 50.619 76.4436 37.7497ZM73.5607 40.2869C62.253 28.9792 48.5981 24.3006 43.0617 29.8369C37.5253 35.3733 42.204 49.0282 53.5117 60.3359C64.8194 71.6437 78.4743 76.3223 84.0107 70.7859C89.5471 65.2495 84.8684 51.5947 73.5607 40.2869Z"/>
</mask>
<path fill-rule="evenodd" clip-rule="evenodd" d="M76.4436 37.7497C63.5743 24.8804 47.3753 20.2142 40.262 27.3275C33.1488 34.4407 37.815 50.6398 50.6843 63.509C63.5535 76.3783 79.7526 81.0445 86.8658 73.9313C93.9791 66.818 89.3129 50.619 76.4436 37.7497ZM73.5607 40.2869C62.253 28.9792 48.5981 24.3006 43.0617 29.8369C37.5253 35.3733 42.204 49.0282 53.5117 60.3359C64.8194 71.6437 78.4743 76.3223 84.0107 70.7859C89.5471 65.2495 84.8684 51.5947 73.5607 40.2869Z" fill="white"/>
<path d="M40.262 27.3275L43.0905 30.1559L43.0905 30.1559L40.262 27.3275ZM76.4436 37.7497L79.272 34.9213L79.272 34.9213L76.4436 37.7497ZM50.6843 63.509L53.5127 60.6806L53.5127 60.6806L50.6843 63.509ZM86.8658 73.9313L84.0374 71.1028L86.8658 73.9313ZM73.5607 40.2869L76.3891 37.4585L76.3891 37.4585L73.5607 40.2869ZM53.5117 60.3359L56.3401 57.5075L56.3401 57.5075L53.5117 60.3359ZM84.0107 70.7859L81.1823 67.9575L81.1823 67.9575L84.0107 70.7859ZM43.0905 30.1559C45.1461 28.1003 49.1518 27.1792 55.0871 28.8888C60.8689 30.5543 67.5664 34.5293 73.6152 40.5781L79.272 34.9213C72.4515 28.1008 64.6149 23.308 57.3015 21.2014C50.1416 19.139 42.4912 19.4414 37.4336 24.499L43.0905 30.1559ZM53.5127 60.6806C47.4639 54.6318 43.4889 47.9343 41.8234 42.1525C40.1137 36.2173 41.0348 32.2115 43.0905 30.1559L37.4336 24.499C32.376 29.5567 32.0736 37.2071 34.136 44.3669C36.2426 51.6803 41.0353 59.517 47.8558 66.3375L53.5127 60.6806ZM84.0374 71.1028C81.9818 73.1585 77.976 74.0796 72.0408 72.3699C66.259 70.7044 59.5615 66.7294 53.5127 60.6806L47.8558 66.3375C54.6763 73.158 62.513 77.9507 69.8264 80.0573C76.9862 82.1197 84.6366 81.8173 89.6943 76.7597L84.0374 71.1028ZM73.6152 40.5781C79.664 46.6269 83.639 53.3244 85.3045 59.1062C87.0142 65.0415 86.093 69.0472 84.0374 71.1028L89.6943 76.7597C94.7519 71.7021 95.0543 64.0517 92.9919 56.8918C90.8853 49.5785 86.0925 41.7418 79.272 34.9213L73.6152 40.5781ZM45.8901 32.6654C46.9785 31.577 49.7454 30.7803 54.8504 32.5294C59.6776 34.1834 65.4142 37.7972 70.7323 43.1154L76.3891 37.4585C70.3995 31.4689 63.6548 27.0895 57.4435 24.9613C51.5101 22.9283 44.6813 22.5605 40.2333 27.0085L45.8901 32.6654ZM56.3401 57.5075C51.022 52.1894 47.4082 46.4528 45.7542 41.6256C44.005 36.5206 44.8017 33.7538 45.8901 32.6654L40.2333 27.0085C35.7853 31.4565 36.1531 38.2853 38.1861 44.2187C40.3143 50.43 44.6936 57.1747 50.6833 63.1643L56.3401 57.5075ZM81.1823 67.9575C80.0939 69.0459 77.327 69.8426 72.222 68.0934C67.3948 66.4395 61.6582 62.8256 56.3401 57.5075L50.6833 63.1643C56.6729 69.154 63.4176 73.5333 69.6289 75.6615C75.5623 77.6945 82.3911 78.0623 86.8391 73.6143L81.1823 67.9575ZM70.7323 43.1154C76.0504 48.4335 79.6642 54.1701 81.3182 58.9972C83.0674 64.1023 82.2707 66.8691 81.1823 67.9575L86.8391 73.6143C91.2871 69.1664 90.9193 62.3376 88.8863 56.4041C86.7581 50.1928 82.3788 43.4481 76.3891 37.4585L70.7323 43.1154Z" fill="#2B308B" mask="url(#path-13-outside-4_171_273)"/>
</g>
<circle cx="64" cy="19" r="2" fill="#2B308B"/>
<circle cx="64" cy="83" r="2" fill="#2B308B"/>
<circle cx="96" cy="51" r="2" transform="rotate(90 96 51)" fill="#2B308B"/>
<circle cx="32" cy="51" r="2" transform="rotate(90 32 51)" fill="#2B308B"/>
<circle cx="63.5" cy="51.5" r="13.5" fill="white" stroke="#2B308B" stroke-width="4"/>
<circle cx="64" cy="51" r="8" fill="#2B308B"/>
<circle cx="68.5" cy="47.5" r="3.5" fill="white"/>
</g>
<path d="M21.144 103.208C20.3867 103.208 19.6747 103.059 19.008 102.76C18.3413 102.456 17.7547 102.037 17.248 101.504C16.7467 100.971 16.352 100.355 16.064 99.656C15.7813 98.952 15.64 98.2 15.64 97.4C15.64 96.5947 15.7813 95.8427 16.064 95.144C16.352 94.44 16.7467 93.824 17.248 93.296C17.7547 92.7627 18.3413 92.3467 19.008 92.048C19.6747 91.744 20.3867 91.592 21.144 91.592C22.0507 91.592 22.8853 91.8027 23.648 92.224C24.4107 92.64 25.0427 93.1973 25.544 93.896L23.4 95.048C23.1227 94.728 22.7893 94.472 22.4 94.28C22.0107 94.088 21.592 93.992 21.144 93.992C20.7173 93.992 20.3147 94.08 19.936 94.256C19.5627 94.432 19.232 94.6773 18.944 94.992C18.6613 95.3013 18.44 95.6613 18.28 96.072C18.12 96.4827 18.04 96.9253 18.04 97.4C18.04 97.8693 18.12 98.3093 18.28 98.72C18.44 99.1307 18.6613 99.4933 18.944 99.808C19.232 100.117 19.5627 100.363 19.936 100.544C20.3147 100.72 20.7173 100.808 21.144 100.808C21.592 100.808 22.0107 100.712 22.4 100.52C22.7893 100.323 23.1227 100.061 23.4 99.736L25.544 100.904C25.0427 101.597 24.4107 102.155 23.648 102.576C22.8853 102.997 22.0507 103.208 21.144 103.208ZM34.9436 91.8H37.3436V103H34.9436V98.2H30.9756V103H28.5756V91.8H30.9756V95.8H34.9436V91.8ZM44.6071 91.8H47.3111L51.3751 103H48.8311L48.1911 101.24H43.7271L43.0871 103H40.5431L44.6071 91.8ZM44.6071 98.84H47.3111L45.9511 95.128L44.6071 98.84ZM54.2444 103V91.8H58.8044C59.4177 91.8 59.9724 91.9547 60.4684 92.264C60.9644 92.5733 61.3564 92.9893 61.6444 93.512C61.9377 94.0293 62.0844 94.6 62.0844 95.224C62.0844 95.704 62.0044 96.152 61.8444 96.568C61.6844 96.9787 61.455 97.344 61.1564 97.664C60.863 97.9787 60.5164 98.232 60.1164 98.424L62.7724 103H60.0044L57.4764 98.648H56.6444V103H54.2444ZM56.6444 96.248H58.5164C58.7297 96.248 58.9244 96.1947 59.1004 96.088C59.2764 95.976 59.4177 95.8293 59.5244 95.648C59.631 95.4667 59.6844 95.2667 59.6844 95.048C59.6844 94.8293 59.631 94.6293 59.5244 94.448C59.4177 94.2667 59.2764 94.1227 59.1004 94.016C58.9244 93.904 58.7297 93.848 58.5164 93.848H56.6444V96.248ZM73.9806 91.8V94.2H70.7806V103H68.3806V94.2H65.1806V91.8H73.9806ZM82.6225 103V91.8H89.7585V94.2H85.0225V95.8H88.6705V98.2H85.0225V100.6H89.7585V103H82.6225ZM99.9771 91.8H102.809L98.9211 97.96V103H96.5211V97.96L92.6331 91.8H95.4651L97.7211 95.352L99.9771 91.8ZM105.291 103V91.8H112.427V94.2H107.691V95.8H111.339V98.2H107.691V100.6H112.427V103H105.291Z" fill="#2B308B"/>
<path d="M33.608 115.156C33.04 115.156 32.506 115.044 32.006 114.82C31.506 114.592 31.066 114.278 30.686 113.878C30.31 113.478 30.014 113.016 29.798 112.492C29.586 111.964 29.48 111.4 29.48 110.8C29.48 110.196 29.586 109.632 29.798 109.108C30.014 108.58 30.31 108.118 30.686 107.722C31.066 107.322 31.506 107.01 32.006 106.786C32.506 106.558 33.04 106.444 33.608 106.444C34.288 106.444 34.914 106.602 35.486 106.918C36.058 107.23 36.532 107.648 36.908 108.172L35.3 109.036C35.092 108.796 34.842 108.604 34.55 108.46C34.258 108.316 33.944 108.244 33.608 108.244C33.288 108.244 32.986 108.31 32.702 108.442C32.422 108.574 32.174 108.758 31.958 108.994C31.746 109.226 31.58 109.496 31.46 109.804C31.34 110.112 31.28 110.444 31.28 110.8C31.28 111.152 31.34 111.482 31.46 111.79C31.58 112.098 31.746 112.37 31.958 112.606C32.174 112.838 32.422 113.022 32.702 113.158C32.986 113.29 33.288 113.356 33.608 113.356C33.944 113.356 34.258 113.284 34.55 113.14C34.842 112.992 35.092 112.796 35.3 112.552L36.908 113.428C36.532 113.948 36.058 114.366 35.486 114.682C34.914 114.998 34.288 115.156 33.608 115.156ZM44.8231 115.156C44.2551 115.156 43.7211 115.044 43.2211 114.82C42.7211 114.592 42.2811 114.278 41.9011 113.878C41.5211 113.478 41.2231 113.016 41.0071 112.492C40.7911 111.964 40.6831 111.4 40.6831 110.8C40.6831 110.2 40.7911 109.638 41.0071 109.114C41.2231 108.586 41.5211 108.122 41.9011 107.722C42.2811 107.322 42.7211 107.01 43.2211 106.786C43.7211 106.558 44.2551 106.444 44.8231 106.444C45.3951 106.444 45.9311 106.558 46.4311 106.786C46.9311 107.01 47.3711 107.322 47.7511 107.722C48.1311 108.122 48.4271 108.586 48.6391 109.114C48.8551 109.638 48.9631 110.2 48.9631 110.8C48.9631 111.4 48.8551 111.964 48.6391 112.492C48.4271 113.016 48.1311 113.478 47.7511 113.878C47.3711 114.278 46.9311 114.592 46.4311 114.82C45.9311 115.044 45.3951 115.156 44.8231 115.156ZM44.8231 113.356C45.1431 113.356 45.4431 113.29 45.7231 113.158C46.0071 113.022 46.2571 112.838 46.4731 112.606C46.6891 112.37 46.8571 112.098 46.9771 111.79C47.1011 111.482 47.1631 111.152 47.1631 110.8C47.1631 110.448 47.1011 110.118 46.9771 109.81C46.8571 109.502 46.6891 109.232 46.4731 109C46.2571 108.764 46.0071 108.58 45.7231 108.448C45.4431 108.312 45.1431 108.244 44.8231 108.244C44.5031 108.244 44.2011 108.312 43.9171 108.448C43.6371 108.58 43.3891 108.764 43.1731 109C42.9571 109.232 42.7871 109.502 42.6631 109.81C42.5431 110.118 42.4831 110.448 42.4831 110.8C42.4831 111.152 42.5431 111.482 42.6631 111.79C42.7871 112.098 42.9571 112.37 43.1731 112.606C43.3891 112.838 43.6371 113.022 43.9171 113.158C44.2011 113.29 44.5031 113.356 44.8231 113.356ZM52.9817 115V106.6H56.4017C56.8617 106.6 57.2777 106.716 57.6497 106.948C58.0217 107.18 58.3157 107.492 58.5317 107.884C58.7517 108.272 58.8617 108.7 58.8617 109.168C58.8617 109.528 58.8017 109.864 58.6817 110.176C58.5617 110.484 58.3897 110.758 58.1657 110.998C57.9457 111.234 57.6857 111.424 57.3857 111.568L59.3777 115H57.3017L55.4057 111.736H54.7817V115H52.9817ZM54.7817 109.936H56.1857C56.3457 109.936 56.4917 109.896 56.6237 109.816C56.7557 109.732 56.8617 109.622 56.9417 109.486C57.0217 109.35 57.0617 109.2 57.0617 109.036C57.0617 108.872 57.0217 108.722 56.9417 108.586C56.8617 108.45 56.7557 108.342 56.6237 108.262C56.4917 108.178 56.3457 108.136 56.1857 108.136H54.7817V109.936ZM63.3411 115V106.6H65.2851L68.3571 111.748V106.6H70.1571V115H68.2131L65.1411 109.852V115H63.3411ZM74.7828 115V106.6H76.5828V115H74.7828ZM81.2005 115V106.6H83.1445L86.2165 111.748V106.6H88.0165V115H86.0725L83.0005 109.852V115H81.2005ZM96.3502 115.156C95.7622 115.156 95.2162 115.042 94.7122 114.814C94.2122 114.586 93.7762 114.272 93.4042 113.872C93.0322 113.468 92.7422 113.002 92.5342 112.474C92.3262 111.946 92.2222 111.384 92.2222 110.788C92.2222 110.144 92.3362 109.558 92.5642 109.03C92.7962 108.502 93.1082 108.046 93.5002 107.662C93.8962 107.274 94.3422 106.976 94.8382 106.768C95.3382 106.56 95.8542 106.456 96.3862 106.456C96.9702 106.456 97.5462 106.592 98.1142 106.864C98.6822 107.136 99.1942 107.576 99.6502 108.184L98.0422 109.048C97.7982 108.772 97.5302 108.57 97.2382 108.442C96.9502 108.31 96.6582 108.244 96.3622 108.244C96.0622 108.244 95.7722 108.306 95.4922 108.43C95.2122 108.554 94.9622 108.73 94.7422 108.958C94.5222 109.186 94.3462 109.458 94.2142 109.774C94.0862 110.09 94.0222 110.44 94.0222 110.824C94.0222 111.176 94.0822 111.506 94.2022 111.814C94.3262 112.122 94.4962 112.392 94.7122 112.624C94.9282 112.852 95.1782 113.032 95.4622 113.164C95.7462 113.292 96.0502 113.356 96.3742 113.356C96.5582 113.356 96.7402 113.332 96.9202 113.284C97.1042 113.232 97.2822 113.156 97.4542 113.056C97.6262 112.956 97.7882 112.828 97.9402 112.672C98.0922 112.516 98.2302 112.332 98.3542 112.12H97.2262V110.56H100.478C100.51 111.188 100.424 111.78 100.22 112.336C100.02 112.888 99.7302 113.376 99.3502 113.8C98.9702 114.224 98.5242 114.556 98.0122 114.796C97.5002 115.036 96.9462 115.156 96.3502 115.156Z" fill="#A6A6A6"/>
<defs>
<clipPath id="clip0_171_273">
<rect width="80" height="80" fill="white" transform="translate(24 11)"/>
</clipPath>
</defs>
</svg>
