<svg width="80" height="80" viewBox="0 0 80 80" fill="none" xmlns="http://www.w3.org/2000/svg">
<rect width="80" height="80" rx="20" fill="#5892EA"/>
<path d="M17.3594 35.5H9.83984V15.7031H17.3047C23.4023 15.7031 27.2031 19.4082 27.2031 25.6016C27.2031 31.7812 23.4023 35.5 17.3594 35.5ZM15.0352 31.0703H17.168C20.2168 31.0703 21.9531 29.7715 21.9531 25.6016C21.9531 21.418 20.2168 20.1328 17.0312 20.1328H15.0352V31.0703ZM48.7773 25.6016C48.7773 32.1914 44.5527 35.7734 39.207 35.7734C33.8066 35.7734 29.623 32.1504 29.6094 25.6016C29.623 19.0117 33.8066 15.4297 39.207 15.4297C44.5527 15.4297 48.7773 19.0117 48.7773 25.6016ZM34.9688 25.6016C34.9688 29.2383 36.4727 31.2207 39.207 31.2344C41.9141 31.2207 43.4316 29.2383 43.418 25.6016C43.4316 21.9512 41.9141 19.9688 39.207 19.9688C36.4727 19.9688 34.9688 21.9512 34.9688 25.6016ZM64.3633 23.0586C64.1855 21.1992 62.9414 19.9688 60.8359 19.9688C58.0879 19.9688 56.543 22.0605 56.543 25.6016C56.543 29.3203 58.1289 31.2207 60.8086 31.2344C62.8184 31.2207 64.0762 30.1543 64.3633 28.3906L69.6406 28.4453C69.3535 31.8359 66.4004 35.7734 60.6992 35.7734C55.2715 35.7734 51.1973 32.1641 51.1836 25.6016C51.1973 19.0117 55.3809 15.4297 60.6992 15.4297C65.6348 15.4297 69.2031 18.1914 69.6406 23.0586H64.3633Z" fill="white"/>
<path d="M24 60.5C24 61.6046 24.8954 62.5 26 62.5H54C55.1046 62.5 56 61.6046 56 60.5V60.5C56 59.3954 55.1046 58.5 54 58.5H26C24.8954 58.5 24 59.3954 24 60.5V60.5ZM24 68.5C24 69.6046 24.8954 70.5 26 70.5H54C55.1046 70.5 56 69.6046 56 68.5V68.5C56 67.3954 55.1046 66.5 54 66.5H26C24.8954 66.5 24 67.3954 24 68.5V68.5ZM24 52.5C24 53.6046 24.8954 54.5 26 54.5H54C55.1046 54.5 56 53.6046 56 52.5V52.5C56 51.3954 55.1046 50.5 54 50.5H26C24.8954 50.5 24 51.3954 24 52.5V52.5ZM26 42.5C24.8954 42.5 24 43.3954 24 44.5V44.5C24 45.6046 24.8954 46.5 26 46.5H54C55.1046 46.5 56 45.6046 56 44.5V44.5C56 43.3954 55.1046 42.5 54 42.5H26Z" fill="white"/>
</svg>
