<svg width="30" height="30" viewBox="0 0 128 128" fill="none" xmlns="http://www.w3.org/2000/svg">
<path fill-rule="evenodd" clip-rule="evenodd" d="M93 53C93 75.0914 75.0914 93 53 93C30.9086 93 13 75.0914 13 53C13 30.9086 30.9086 13 53 13C75.0914 13 93 30.9086 93 53ZM84.6104 91.7419C75.996 98.779 64.9909 103 53 103C25.3858 103 3 80.6142 3 53C3 25.3858 25.3858 3 53 3C80.6142 3 103 25.3858 103 53C103 65.0218 98.7573 76.0526 91.6875 84.6769L123.505 116.495C125.458 118.447 125.458 121.613 123.505 123.566C121.553 125.518 118.387 125.518 116.434 123.566L84.6104 91.7419Z" fill="#1F1F1F"/>
<path fill-rule="evenodd" clip-rule="evenodd" d="M72.6598 49.3072C70.4759 51.5832 67.4034 53 64 53C57.3726 53 52 47.6274 52 41C52 37.9726 53.1211 35.2071 54.9707 33.0959C54.3224 33.0325 53.665 33 53 33C41.9543 33 33 41.9543 33 53C33 64.0457 41.9543 73 53 73C64.0457 73 73 64.0457 73 53C73 51.7384 72.8832 50.504 72.6598 49.3072Z" fill="#1F1F1F"/>
</svg>
