<svg width="80" height="80" viewBox="0 0 80 80" fill="none" xmlns="http://www.w3.org/2000/svg">
<rect width="80" height="80" rx="20" fill="#EA5858"/>
<path d="M14.3398 35.5V15.7031H22.7617C27.1914 15.7031 30.0898 18.4785 30.0898 22.6484C30.0898 26.8867 27.1094 29.5527 22.5977 29.5391H19.5352V35.5H14.3398ZM19.5352 25.4922H21.5586C23.5137 25.4785 24.6621 24.3848 24.6484 22.6484C24.6621 20.9258 23.5137 19.873 21.5586 19.8594H19.5352V25.4922ZM39.6602 35.5H32.1406V15.7031H39.6055C45.7031 15.7031 49.5039 19.4082 49.5039 25.6016C49.5039 31.7812 45.7031 35.5 39.6602 35.5ZM37.3359 31.0703H39.4688C42.5176 31.0703 44.2539 29.7715 44.2539 25.6016C44.2539 21.418 42.5176 20.1328 39.332 20.1328H37.3359V31.0703ZM52.0469 35.5V15.7031H65.8555V19.9141H57.2422V23.4961H64.9805V27.707H57.2422V35.5H52.0469Z" fill="white"/>
<path d="M54 67.3889V45.6111C54 43.9 52.6 42.5 50.8889 42.5H29.1111C27.4 42.5 26 43.9 26 45.6111V67.3889C26 69.1 27.4 70.5 29.1111 70.5H50.8889C52.6 70.5 54 69.1 54 67.3889ZM34.5556 58.8333L38.4444 63.5156L43.8889 56.5L50.8889 65.8333H29.1111L34.5556 58.8333Z" fill="white"/>
</svg>
