<svg width="80" height="80" viewBox="0 0 80 80" fill="none" xmlns="http://www.w3.org/2000/svg">
<rect width="80" height="80" rx="20" fill="#FF7C45"/>
<path d="M13.8398 35.5V15.7031H22.2617C26.6914 15.7031 29.5898 18.4785 29.5898 22.6484C29.5898 26.8867 26.6094 29.5527 22.0977 29.5391H19.0352V35.5H13.8398ZM19.0352 25.4922H21.0586C23.0137 25.4785 24.1621 24.3848 24.1484 22.6484C24.1621 20.9258 23.0137 19.873 21.0586 19.8594H19.0352V25.4922ZM31.6406 35.5V15.7031H40.0625C44.4922 15.7031 47.3906 18.4785 47.3906 22.6484C47.3906 26.8867 44.4102 29.5527 39.8984 29.5391H36.8359V35.5H31.6406ZM36.8359 25.4922H38.8594C40.8145 25.4785 41.9629 24.3848 41.9492 22.6484C41.9629 20.9258 40.8145 19.873 38.8594 19.8594H36.8359V25.4922ZM48.8672 19.9141V15.7031H65.9297V19.9141H59.9688V35.5H54.8281V19.9141H48.8672Z" fill="white"/>
<path d="M41.4161 55.1018V42.5C44.7907 42.854 47.6405 44.1991 49.9654 46.5354C52.2894 48.8717 53.6402 51.7271 54.0178 55.1018H41.4161ZM38.6196 70.5C35.0326 70.146 32.0299 68.6357 29.6114 65.969C27.1921 63.3024 25.9824 60.1519 25.9824 56.5177C25.9824 52.8599 27.1921 49.6976 29.6114 47.031C32.0299 44.3643 35.0326 42.854 38.6196 42.5V70.5ZM41.4161 70.5V57.8982H54.0178C53.6874 61.2729 52.348 64.1345 49.9994 66.483C47.6518 68.8306 44.7907 70.1696 41.4161 70.5Z" fill="white"/>
</svg>
