<svg width="80" height="80" viewBox="0 0 80 80" fill="none" xmlns="http://www.w3.org/2000/svg">
<rect width="80" height="80" rx="20" fill="#696E82"/>
<path d="M12.8398 35.5V15.7031H26.6484V19.9141H18.0352V23.4961H25.7734V27.707H18.0352V35.5H12.8398ZM33.9219 15.7031V35.5H28.7266V15.7031H33.9219ZM36.6016 35.5V15.7031H41.7969V31.2891H49.8633V35.5H36.6016ZM52.1055 35.5V15.7031H66.2422V19.9141H57.3008V23.4961H65.5039V27.707H57.3008V31.2891H66.2148V35.5H52.1055Z" fill="white"/>
<path d="M35.7998 56.5H44.1998C44.5965 56.5 44.9292 56.3656 45.198 56.0968C45.4659 55.8289 45.5998 55.4967 45.5998 55.1C45.5998 54.7033 45.4659 54.3706 45.198 54.1018C44.9292 53.8339 44.5965 53.7 44.1998 53.7H35.7998C35.4031 53.7 35.0709 53.8339 34.803 54.1018C34.5342 54.3706 34.3998 54.7033 34.3998 55.1C34.3998 55.4967 34.5342 55.8289 34.803 56.0968C35.0709 56.3656 35.4031 56.5 35.7998 56.5ZM35.7998 50.9H44.1998C44.5965 50.9 44.9292 50.7661 45.198 50.4982C45.4659 50.2294 45.5998 49.8967 45.5998 49.5C45.5998 49.1033 45.4659 48.7706 45.198 48.5018C44.9292 48.2339 44.5965 48.1 44.1998 48.1H35.7998C35.4031 48.1 35.0709 48.2339 34.803 48.5018C34.5342 48.7706 34.3998 49.1033 34.3998 49.5C34.3998 49.8967 34.5342 50.2294 34.803 50.4982C35.0709 50.7661 35.4031 50.9 35.7998 50.9ZM51.1298 68.365L45.4598 60.98C45.0631 60.4433 44.5731 60.0289 43.9898 59.7368C43.4065 59.4456 42.7765 59.3 42.0998 59.3H28.7998V45.3C28.7998 44.53 29.0742 43.8706 29.623 43.3218C30.1709 42.7739 30.8298 42.5 31.5998 42.5H48.3998C49.1698 42.5 49.8292 42.7739 50.378 43.3218C50.9259 43.8706 51.1998 44.53 51.1998 45.3V67.7C51.1998 67.8167 51.1942 67.9277 51.183 68.0332C51.1709 68.1377 51.1531 68.2483 51.1298 68.365ZM31.5998 70.5C30.8298 70.5 30.1709 70.2261 29.623 69.6782C29.0742 69.1294 28.7998 68.47 28.7998 67.7V62.1H42.0998C42.3331 62.1 42.5492 62.1527 42.748 62.2582C42.9459 62.3627 43.1148 62.5083 43.2548 62.695L49.1348 70.395C49.0181 70.4417 48.8959 70.4711 48.768 70.4832C48.6392 70.4944 48.5165 70.5 48.3998 70.5H31.5998Z" fill="white"/>
</svg>
